<?xml version="1.0" encoding="utf-8"?>
<!-- Generator: Adobe Illustrator 21.1.0, SVG Export Plug-In . SVG Version: 6.00 Build 0)  -->
<svg version="1.1" id="Layer_1" xmlns="http://www.w3.org/2000/svg" xmlns:xlink="http://www.w3.org/1999/xlink" width="300" height="49.8"
	 viewBox="0 0 300 49.8" enable-background="new 0 0 300 49.8" xml:space="preserve">
<g>
	<g>
		<path fill="#414042" d="M27,6.2l0.5,0.1L24.6,0l-2.8,6.2l0.5-0.1C23.8,6,25.4,6,27,6.2"/>
		<path fill="#414042" d="M39.6,13.1l0.3,0.4L42.3,7l-6.4,2.4l0.4,0.3C37.5,10.7,38.6,11.8,39.6,13.1"/>
		<path fill="#414042" d="M43.6,22.2c0.2,1.6,0.2,3.2,0,4.8l-0.1,0.5l6.2-2.9l-6.2-2.8L43.6,22.2z"/>
		<path fill="#414042" d="M40.1,36.2c-1,1.3-2.1,2.4-3.4,3.4l-0.4,0.3l6.4,2.4l-2.4-6.4L40.1,36.2z"/>
		<path fill="#414042" d="M22.8,43.6l-0.5-0.1l2.9,6.2l2.8-6.2l-0.5,0.1C26,43.8,24.4,43.8,22.8,43.6"/>
		<path fill="#414042" d="M10.2,36.7l-0.3-0.4l-2.4,6.4l6.4-2.4l-0.4-0.3C12.3,39.1,11.2,38,10.2,36.7"/>
		<path fill="#414042" d="M6.2,27.6C6,26,6,24.4,6.2,22.8l0.1-0.5L0,25.2l6.2,2.8L6.2,27.6z"/>
		<path fill="#414042" d="M9.7,13.6c1-1.3,2.1-2.4,3.4-3.4l0.4-0.3L7,7.5l2.4,6.4L9.7,13.6z"/>
		<path fill="#414042" d="M20.1,6.7l-5-4.6l-0.2,6.8l0.4-0.2c1.4-0.8,2.9-1.4,4.4-1.8L20.1,6.7z"/>
		<path fill="#414042" d="M34.4,8.6l-0.3-6.9l-5,4.7l0.4,0.1c1.5,0.4,3,1,4.4,1.8L34.4,8.6z"/>
		<path fill="#414042" d="M41.2,15.2c0.8,1.4,1.4,2.9,1.8,4.4l0.1,0.4l4.6-5L41,14.8L41.2,15.2z"/>
		<path fill="#414042" d="M43.3,29.6c-0.4,1.5-1,3-1.8,4.4l-0.2,0.4l6.9-0.3l-4.7-5L43.3,29.6z"/>
		<path fill="#414042" d="M30.2,43l-0.4,0.1l5,4.6L35,41l-0.4,0.2C33.2,42,31.7,42.6,30.2,43"/>
		<path fill="#414042" d="M15.8,41.4l-0.4-0.2l0.3,6.9l5-4.7l-0.4-0.1C18.7,42.8,17.2,42.2,15.8,41.4"/>
		<path fill="#414042" d="M8.6,34.6c-0.8-1.4-1.4-2.9-1.8-4.4l-0.1-0.4l-4.6,5L8.8,35L8.6,34.6z"/>
		<path fill="#414042" d="M6.5,20.2c0.4-1.5,1-3,1.8-4.4l0.2-0.4l-6.9,0.3l4.7,5L6.5,20.2z"/>
	</g>
	<g>
		<path fill="#414042" d="M86,29.8c-3.2,0-5.7-2.6-5.7-6c0-2.8,2.7-5.3,5.7-5.3c3,0,5.7,2.5,5.7,5.3C91.6,27.2,89.1,29.8,86,29.8
			 M86,14.2c-5.7,0-10.4,4.7-10.4,10c0,6.1,4.3,10,10.4,10c6.1,0,10.4-4.3,10.4-10.3C96.3,18.5,91.7,14.2,86,14.2"/>
		<path fill="#414042" d="M106.1,23.6H105v-5.3h1.1c1.9,0,3.9,0,3.9,2.7C110,23.6,107.9,23.6,106.1,23.6 M107.9,14.8h-7.4v18.7h4.5
			v-6.4h3.1c4.4,0,6.5-2,6.5-6.3C114.7,17,112.3,14.8,107.9,14.8"/>
		<polygon fill="#414042" points="128.8,18.5 128.8,14.8 118.4,14.8 118.4,33.5 128.8,33.5 128.8,29.8 122.9,29.8 122.9,26 
			128.5,26 128.5,22.3 122.9,22.3 122.9,18.5 		"/>
		<polygon fill="#414042" points="138.4,21.8 147.5,33.5 152.1,33.5 152.1,14.8 147.6,14.8 147.6,26.6 147.2,26.6 147.1,26.5 
			138,14.8 133.4,14.8 133.4,33.5 137.9,33.5 137.9,21.7 138.3,21.7 		"/>
		<polygon fill="#414042" points="188.2,14.8 184.6,27.2 184.2,27.2 184.1,27.1 180.4,14.8 176.8,14.8 172.8,27.2 172.4,27.2 
			172.3,27 169,14.8 164.3,14.8 169.9,33.5 174.6,33.5 178.4,22.4 178.7,22.4 178.9,22.6 182.2,33.5 186.9,33.5 192.9,14.8 		"/>
		<rect x="196.9" y="14.8" fill="#414042" width="4.5" height="18.7"/>
		<polygon fill="#414042" points="210.8,21.8 219.8,33.5 224.4,33.5 224.4,14.8 220,14.8 220,26.6 219.6,26.6 219.4,26.5 
			210.4,14.8 205.8,14.8 205.8,33.5 210.2,33.5 210.2,21.7 210.6,21.7 		"/>
		<path fill="#414042" d="M235.5,29.8h-1.4V18.5h1.4c3.5,0,5.7,2.2,5.7,5.6C241.3,28.3,238.3,29.8,235.5,29.8 M236.4,14.8h-6.8v18.7
			h6.8c5.2,0,9.5-4.2,9.5-9.3C245.9,19,241.7,14.8,236.4,14.8"/>
		<path fill="#414042" d="M259.2,29.8c-3.2,0-5.7-2.6-5.7-6c0-2.8,2.7-5.3,5.7-5.3c3,0,5.7,2.5,5.7,5.3
			C264.9,27.2,262.4,29.8,259.2,29.8 M259.2,14.2c-5.7,0-10.4,4.3-10.4,9.6c0,6.1,4.3,10.3,10.4,10.3c6.1,0,10.4-4.3,10.4-10.3
			C269.5,18.5,264.9,14.2,259.2,14.2"/>
		<polygon fill="#414042" points="295.4,14.8 291.7,27.2 291.3,27.2 291.2,27.1 287.5,14.8 283.9,14.8 279.9,27.2 279.5,27.2 
			279.4,27 276.1,14.8 271.5,14.8 277.1,33.5 281.7,33.5 285.5,22.4 285.9,22.4 286,22.6 289.3,33.5 294,33.5 300,14.8 		"/>
	</g>
	<polygon fill="#414042" points="54,47.7 56.6,47.7 64.7,2.1 62.1,2.1 	"/>
</g>
</svg>
